# xmcd
#
# Track frame offsets:
#	150
#	9563
#	18964
#	31590
#	46830
#	60345
#	76476
#	87358
#	99441
#	109968
#	123391
#	136315
#	147044
#	160905
#	173394
#	186404
#
# Disc length: 2617
#
# Revision: 1
# Processed by: cddbd v1.5.1PL0 Copyright (c) Steve Scherf et al.
# Submitted via: CDex 1.40Beta9
# Normalized: r0:TDELIM( - )
#
DISCID=be0a3710
DTITLE=Various Artist - Country Heat Classics Disc One
DYEAR=2001
DGENRE=Country
TTITLE0=Chet Atkins - Yakity Axe
TTITLE1=Charlie Pride - Kiss An Angle Good Mornin'
TTITLE2=Waylon Jennings - I'm A Ramblin' Man
TTITLE3=George Jones - He Stopped Loving Her Today
TTITLE4=Dolly Parton - Here You Come Again
TTITLE5=Willie Nelson - Always On My Mind
TTITLE6=Porter Wagoner - Green, Green Grass Of Home
TTITLE7=Skeeter Davis - The End Of The World
TTITLE8=Connie Smith - Once A Day
TTITLE9=Hank Snow - I Don't Hurt Anymore
TTITLE10=Bobby Bare - Detroit City
TTITLE11=Jerry Reed - When You're Hot, You're Hot
TTITLE12=The Davis Sisters - I Forgot More Than You'll Ever Know
TTITLE13=Eddy Arnold - Cattle Call
TTITLE14=The Browns - The Three Bells
TTITLE15=Cons Of The Pioneers - Cool Water
EXTD=YEAR: 2001 ID3G: 2
EXTT0=
EXTT1=
EXTT2=
EXTT3=
EXTT4=
EXTT5=
EXTT6=
EXTT7=
EXTT8=
EXTT9=
EXTT10=
EXTT11=
EXTT12=
EXTT13=
EXTT14=
EXTT15=
PLAYORDER=
